<svg width="22" height="23" viewBox="0 0 22 23" fill="none" xmlns="http://www.w3.org/2000/svg">
<path d="M11.0391 0C16.9357 7.69062e-05 21.7157 4.78017 21.7158 10.6768C21.7158 16.5734 16.9357 21.3534 11.0391 21.3535C9.75176 21.3535 8.51776 21.1255 7.375 20.708L0 22.0781L1.20508 14.8428C0.662174 13.5628 0.362305 12.1547 0.362305 10.6768C0.362431 4.78013 5.1424 0 11.0391 0Z" fill="white"/>
<path d="M10.9969 2.50569C15.5328 2.50569 19.2097 6.18271 19.2098 10.7186C19.2098 15.2545 15.5328 18.9315 10.9969 18.9315C10.0063 18.9314 9.05687 18.7558 8.17756 18.4344L2.50568 19.4891L3.43244 13.9227C3.01496 12.9382 2.784 11.8553 2.784 10.7186C2.78409 6.1828 6.46112 2.50584 10.9969 2.50569Z" fill="white"/>
<path d="M10.9969 2.50569V1.53126H10.9969L10.9969 2.50569ZM19.2098 10.7186H20.1842V10.7186L19.2098 10.7186ZM10.9969 18.9315L10.9969 19.9059H10.9969V18.9315ZM8.17756 18.4344L8.5121 17.5192L8.26161 17.4276L7.99941 17.4764L8.17756 18.4344ZM2.50568 19.4891L1.54448 19.3291L1.31599 20.7014L2.68382 20.4471L2.50568 19.4891ZM3.43244 13.9227L4.39364 14.0827L4.44018 13.8032L4.32954 13.5423L3.43244 13.9227ZM2.784 10.7186L1.80957 10.7186V10.7186H2.784ZM10.9969 2.50569V3.48012C14.9946 3.48012 18.2353 6.72086 18.2354 10.7186L19.2098 10.7186L20.1842 10.7186C20.1841 5.64456 16.071 1.53126 10.9969 1.53126V2.50569ZM19.2098 10.7186H18.2354C18.2354 14.7164 14.9947 17.957 10.9969 17.957V18.9315V19.9059C16.071 19.9059 20.1842 15.7927 20.1842 10.7186H19.2098ZM10.9969 18.9315L10.9969 17.957C10.1223 17.957 9.28596 17.8021 8.5121 17.5192L8.17756 18.4344L7.84301 19.3496C8.82778 19.7096 9.89033 19.9059 10.9969 19.9059L10.9969 18.9315ZM8.17756 18.4344L7.99941 17.4764L2.32754 18.5311L2.50568 19.4891L2.68382 20.4471L8.3557 19.3924L8.17756 18.4344ZM2.50568 19.4891L3.46688 19.6491L4.39364 14.0827L3.43244 13.9227L2.47124 13.7627L1.54448 19.3291L2.50568 19.4891ZM3.43244 13.9227L4.32954 13.5423C3.96217 12.6759 3.75843 11.7222 3.75843 10.7186H2.784H1.80957C1.80957 11.9883 2.06775 13.2005 2.53534 14.3031L3.43244 13.9227ZM2.784 10.7186L3.75843 10.7186C3.75852 6.72098 6.99928 3.48025 10.9969 3.48012L10.9969 2.50569L10.9969 1.53126C5.92296 1.53142 1.80967 5.64462 1.80957 10.7186L2.784 10.7186Z" fill="#756FDC"/>
</svg>
