<svg width="22" height="18" viewBox="0 0 22 18" fill="none" xmlns="http://www.w3.org/2000/svg">
<path d="M2.32227 0.733398C3.01137 0.400963 3.79214 0.314442 4.53613 0.487305C5.28 0.660235 5.94465 1.08267 6.4209 1.68652C6.8971 2.29042 7.15725 3.03978 7.15723 3.8125V3.81348C7.15733 4.15059 7.1074 4.48599 7.01074 4.80859L6.92773 5.08691L7.16699 5.25195L20.4385 14.415C20.518 14.4699 20.5857 14.5412 20.6387 14.623C20.6915 14.7048 20.7282 14.7963 20.7461 14.8926C20.764 14.9891 20.7632 15.0885 20.7432 15.1846C20.7231 15.2806 20.6846 15.3715 20.6299 15.4521C20.5752 15.5327 20.5054 15.6012 20.4248 15.6543C20.3443 15.7073 20.2543 15.7439 20.1602 15.7617C20.066 15.7795 19.9688 15.7787 19.875 15.7588C19.7812 15.7389 19.6918 15.7003 19.6123 15.6455L11.1846 9.8252L10.957 9.66895L10.7305 9.8252L7.16699 12.2842L6.92773 12.4502L7.01074 12.7285C7.1075 13.0514 7.15742 13.3872 7.15723 13.7246V13.7266C7.15871 14.1753 7.07137 14.6197 6.90137 15.0342C6.73137 15.4485 6.48177 15.8248 6.16699 16.1406L6.16602 16.1416C5.70553 16.6062 5.12204 16.9268 4.48633 17.0645C3.85049 17.202 3.18819 17.151 2.58008 16.918C1.97199 16.685 1.44252 16.2798 1.05664 15.75C0.670707 15.2201 0.445169 14.5878 0.40625 13.9307C0.367428 13.2737 0.5172 12.6194 0.837891 12.0469C1.15864 11.4743 1.63642 11.0076 2.21289 10.7031C2.78929 10.3987 3.4405 10.2689 4.08789 10.3291C4.73535 10.3893 5.35234 10.6371 5.86426 11.043L6.09668 11.2275L6.33984 11.0586L9.17383 9.09863L9.64941 8.76953L9.17383 8.44141L6.33984 6.48145L6.09668 6.3125L5.86426 6.49707C5.2632 6.9735 4.52016 7.22955 3.75684 7.22461C2.99358 7.21966 2.25412 6.95384 1.65918 6.46973C1.06414 5.98547 0.648419 5.31085 0.481445 4.55664C0.314609 3.80255 0.406563 3.0139 0.741211 2.31934C1.07586 1.6248 1.63325 1.06589 2.32227 0.733398ZM4.15137 11.8379C3.71702 11.7509 3.26604 11.8189 2.87598 12.0293C2.48588 12.2399 2.18029 12.5803 2.01172 12.9912C1.84321 13.402 1.82136 13.8589 1.94922 14.2842C2.07714 14.7095 2.34726 15.0783 2.71484 15.3262C3.08256 15.5741 3.52488 15.6853 3.96582 15.6416C4.40667 15.5979 4.81842 15.4019 5.13086 15.0869C5.30848 14.9078 5.44907 14.6946 5.54492 14.4609C5.64067 14.2274 5.68965 13.9771 5.68945 13.7246C5.68906 13.2804 5.53604 12.8499 5.25586 12.5059C4.97561 12.1618 4.58577 11.9249 4.15137 11.8379ZM20.1602 1.77637C20.3503 1.81242 20.5195 1.9232 20.6299 2.08594C20.7405 2.24894 20.7823 2.4505 20.7461 2.64551C20.7099 2.84021 20.5988 3.01122 20.4385 3.12207L14.7148 7.07422C14.6355 7.12887 14.5467 7.16761 14.4531 7.1875C14.3593 7.2074 14.2622 7.20825 14.168 7.19043C14.0738 7.1726 13.9839 7.13602 13.9033 7.08301C13.8228 7.03 13.7529 6.96134 13.6982 6.88086C13.6436 6.80033 13.605 6.70914 13.585 6.61328C13.565 6.51727 13.5641 6.41773 13.582 6.32129C13.6 6.22496 13.6366 6.13353 13.6895 6.05176C13.7423 5.97001 13.8103 5.89956 13.8896 5.84473L19.6123 1.89258C19.7727 1.78184 19.97 1.74043 20.1602 1.77637ZM3.77832 1.88672C3.3995 1.88676 3.02922 1.99992 2.71484 2.21191C2.4006 2.4239 2.15586 2.72488 2.01172 3.07617C1.86763 3.42748 1.83074 3.81387 1.9043 4.18652C1.97788 4.55924 2.15865 4.9025 2.42578 5.17188C2.78386 5.53295 3.27053 5.73628 3.77832 5.73633C4.28611 5.73633 4.77275 5.5329 5.13086 5.17188C5.39802 4.90249 5.57974 4.55928 5.65332 4.18652C5.72687 3.81385 5.68905 3.42749 5.54492 3.07617C5.40074 2.72478 5.15617 2.42391 4.8418 2.21191C4.52736 1.99988 4.1572 1.88672 3.77832 1.88672Z" fill="#756FDC" stroke="white" stroke-width="0.8"/>
</svg>
